<mxfile host="Electron" agent="Mozilla/5.0 (Macintosh; Intel Mac OS X 10_15_7) AppleWebKit/537.36 (KHTML, like Gecko) draw.io/26.0.7 Chrome/128.0.6613.186 Electron/32.2.5 Safari/537.36" version="26.0.7">
  <diagram name="Page-1" id="XA8IaCslzpPFEdKXKMEf">
    <mxGraphModel dx="1306" dy="843" grid="1" gridSize="10" guides="1" tooltips="1" connect="1" arrows="1" fold="1" page="1" pageScale="1" pageWidth="1169" pageHeight="827" background="#ffffff" math="0" shadow="0">
      <root>
        <mxCell id="0" />
        <mxCell id="1" parent="0" />
        <mxCell id="Wi8PmgA-3Iz7vUzlUj4d-130" value="" style="endArrow=oval;html=1;rounded=0;exitX=0.5;exitY=0;exitDx=0;exitDy=0;entryX=0.5;entryY=0;entryDx=0;entryDy=0;edgeStyle=elbowEdgeStyle;fontColor=#000000;strokeColor=#000000;startArrow=oval;startFill=1;endFill=1;" parent="1" source="0tsyTf72HqtN8PbdZxnk-53" target="0tsyTf72HqtN8PbdZxnk-49" edge="1">
          <mxGeometry width="50" height="50" relative="1" as="geometry">
            <mxPoint x="1032.5" y="630" as="sourcePoint" />
            <mxPoint x="1292.5" y="630" as="targetPoint" />
            <Array as="points">
              <mxPoint x="1170" y="620" />
            </Array>
          </mxGeometry>
        </mxCell>
        <mxCell id="0tsyTf72HqtN8PbdZxnk-1" value="" style="endArrow=none;html=1;rounded=0;exitX=0.5;exitY=0;exitDx=0;exitDy=0;entryX=0.506;entryY=0.992;entryDx=0;entryDy=0;entryPerimeter=0;fontColor=#000000;strokeColor=#000000;endFill=0;startArrow=oval;startFill=1;" parent="1" source="0tsyTf72HqtN8PbdZxnk-43" target="0tsyTf72HqtN8PbdZxnk-34" edge="1">
          <mxGeometry width="50" height="50" relative="1" as="geometry">
            <mxPoint x="887.5" y="630" as="sourcePoint" />
            <mxPoint x="889.6250000000002" y="545.575" as="targetPoint" />
          </mxGeometry>
        </mxCell>
        <mxCell id="0tsyTf72HqtN8PbdZxnk-4" value="" style="endArrow=oval;html=1;rounded=0;edgeStyle=elbowEdgeStyle;fontColor=#000000;strokeColor=#000000;startArrow=oval;startFill=1;endFill=1;exitX=0.5;exitY=0;exitDx=0;exitDy=0;entryX=0.5;entryY=0;entryDx=0;entryDy=0;" parent="1" source="0tsyTf72HqtN8PbdZxnk-29" target="0tsyTf72HqtN8PbdZxnk-37" edge="1">
          <mxGeometry width="50" height="50" relative="1" as="geometry">
            <mxPoint x="890" y="420" as="sourcePoint" />
            <mxPoint x="1170" y="420" as="targetPoint" />
            <Array as="points">
              <mxPoint x="1020" y="420" />
            </Array>
          </mxGeometry>
        </mxCell>
        <mxCell id="0tsyTf72HqtN8PbdZxnk-5" value="" style="endArrow=none;html=1;rounded=0;entryX=0.497;entryY=0.985;entryDx=0;entryDy=0;entryPerimeter=0;strokeColor=#000000;" parent="1" target="0tsyTf72HqtN8PbdZxnk-17" edge="1">
          <mxGeometry width="50" height="50" relative="1" as="geometry">
            <mxPoint x="1019" y="420" as="sourcePoint" />
            <mxPoint x="1019.25" y="345" as="targetPoint" />
          </mxGeometry>
        </mxCell>
        <mxCell id="0tsyTf72HqtN8PbdZxnk-10" value="" style="endArrow=none;html=1;rounded=0;strokeColor=#000000;exitX=1;exitY=0.5;exitDx=0;exitDy=0;startArrow=oval;startFill=1;entryX=0.137;entryY=1;entryDx=0;entryDy=0;entryPerimeter=0;" parent="1" source="0tsyTf72HqtN8PbdZxnk-26" target="0tsyTf72HqtN8PbdZxnk-17" edge="1">
          <mxGeometry width="50" height="50" relative="1" as="geometry">
            <mxPoint x="950" y="362.5" as="sourcePoint" />
            <mxPoint x="990.375" y="346.1500000000001" as="targetPoint" />
            <Array as="points">
              <mxPoint x="970" y="363" />
            </Array>
          </mxGeometry>
        </mxCell>
        <mxCell id="0tsyTf72HqtN8PbdZxnk-11" value="Entity" style="text;strokeColor=none;align=left;fillColor=none;html=1;verticalAlign=middle;whiteSpace=wrap;rounded=0;fontColor=#000000;fontSize=24;" parent="1" vertex="1">
          <mxGeometry x="800" y="60" width="335" height="30" as="geometry" />
        </mxCell>
        <mxCell id="0tsyTf72HqtN8PbdZxnk-12" value="Endpoint" style="text;strokeColor=none;align=left;fillColor=none;html=1;verticalAlign=middle;whiteSpace=wrap;rounded=0;fontColor=#000000;fontSize=24;" parent="1" vertex="1">
          <mxGeometry x="480" y="60" width="290" height="30" as="geometry" />
        </mxCell>
        <mxCell id="0tsyTf72HqtN8PbdZxnk-13" value="Identity: YOU" style="swimlane;fontStyle=0;childLayout=stackLayout;horizontal=1;startSize=26;fillColor=none;horizontalStack=0;resizeParent=1;resizeParentMax=0;resizeLast=0;collapsible=1;marginBottom=0;whiteSpace=wrap;html=1;fontColor=#000000;strokeColor=#000000;" parent="1" vertex="1">
          <mxGeometry x="950" y="131" width="140" height="208" as="geometry" />
        </mxCell>
        <mxCell id="0tsyTf72HqtN8PbdZxnk-14" value="+ Attribute: ID" style="text;strokeColor=#000000;fillColor=none;align=left;verticalAlign=top;spacingLeft=4;spacingRight=4;overflow=hidden;rotatable=0;points=[[0,0.5],[1,0.5]];portConstraint=eastwest;whiteSpace=wrap;html=1;fontColor=#000000;" parent="0tsyTf72HqtN8PbdZxnk-13" vertex="1">
          <mxGeometry y="26" width="140" height="26" as="geometry" />
        </mxCell>
        <mxCell id="0tsyTf72HqtN8PbdZxnk-15" value="+ Attribute: NAME" style="text;strokeColor=#000000;fillColor=none;align=left;verticalAlign=top;spacingLeft=4;spacingRight=4;overflow=hidden;rotatable=0;points=[[0,0.5],[1,0.5]];portConstraint=eastwest;whiteSpace=wrap;html=1;fontColor=#000000;" parent="0tsyTf72HqtN8PbdZxnk-13" vertex="1">
          <mxGeometry y="52" width="140" height="26" as="geometry" />
        </mxCell>
        <mxCell id="0tsyTf72HqtN8PbdZxnk-16" value="+ Attribute: A1" style="text;strokeColor=#000000;fillColor=none;align=left;verticalAlign=top;spacingLeft=4;spacingRight=4;overflow=hidden;rotatable=0;points=[[0,0.5],[1,0.5]];portConstraint=eastwest;whiteSpace=wrap;html=1;fontColor=#000000;" parent="0tsyTf72HqtN8PbdZxnk-13" vertex="1">
          <mxGeometry y="78" width="140" height="26" as="geometry" />
        </mxCell>
        <mxCell id="0tsyTf72HqtN8PbdZxnk-20" value="+ Attribute: A2" style="text;strokeColor=#000000;fillColor=none;align=left;verticalAlign=top;spacingLeft=4;spacingRight=4;overflow=hidden;rotatable=0;points=[[0,0.5],[1,0.5]];portConstraint=eastwest;whiteSpace=wrap;html=1;fontColor=#000000;" parent="0tsyTf72HqtN8PbdZxnk-13" vertex="1">
          <mxGeometry y="104" width="140" height="26" as="geometry" />
        </mxCell>
        <mxCell id="0tsyTf72HqtN8PbdZxnk-19" value="+ Attribute: A3" style="text;strokeColor=#000000;fillColor=none;align=left;verticalAlign=top;spacingLeft=4;spacingRight=4;overflow=hidden;rotatable=0;points=[[0,0.5],[1,0.5]];portConstraint=eastwest;whiteSpace=wrap;html=1;fontColor=#000000;" parent="0tsyTf72HqtN8PbdZxnk-13" vertex="1">
          <mxGeometry y="130" width="140" height="26" as="geometry" />
        </mxCell>
        <mxCell id="0tsyTf72HqtN8PbdZxnk-18" value="+ Attribute: A4" style="text;strokeColor=#000000;fillColor=none;align=left;verticalAlign=top;spacingLeft=4;spacingRight=4;overflow=hidden;rotatable=0;points=[[0,0.5],[1,0.5]];portConstraint=eastwest;whiteSpace=wrap;html=1;fontColor=#000000;" parent="0tsyTf72HqtN8PbdZxnk-13" vertex="1">
          <mxGeometry y="156" width="140" height="26" as="geometry" />
        </mxCell>
        <mxCell id="0tsyTf72HqtN8PbdZxnk-17" value="+ Attribute: A5" style="text;strokeColor=#000000;fillColor=none;align=left;verticalAlign=top;spacingLeft=4;spacingRight=4;overflow=hidden;rotatable=0;points=[[0,0.5],[1,0.5]];portConstraint=eastwest;whiteSpace=wrap;html=1;fontColor=#000000;" parent="0tsyTf72HqtN8PbdZxnk-13" vertex="1">
          <mxGeometry y="182" width="140" height="26" as="geometry" />
        </mxCell>
        <mxCell id="0tsyTf72HqtN8PbdZxnk-21" value="Role: R1" style="swimlane;fontStyle=0;childLayout=stackLayout;horizontal=1;startSize=26;fillColor=none;horizontalStack=0;resizeParent=1;resizeParentMax=0;resizeLast=0;collapsible=1;marginBottom=0;whiteSpace=wrap;html=1;fontColor=#000000;strokeColor=#000000;" parent="1" vertex="1">
          <mxGeometry x="800" y="220" width="140" height="182" as="geometry" />
        </mxCell>
        <mxCell id="0tsyTf72HqtN8PbdZxnk-22" value="+ Attribute: ID" style="text;strokeColor=#000000;fillColor=none;align=left;verticalAlign=top;spacingLeft=4;spacingRight=4;overflow=hidden;rotatable=0;points=[[0,0.5],[1,0.5]];portConstraint=eastwest;whiteSpace=wrap;html=1;fontColor=#000000;" parent="0tsyTf72HqtN8PbdZxnk-21" vertex="1">
          <mxGeometry y="26" width="140" height="26" as="geometry" />
        </mxCell>
        <mxCell id="0tsyTf72HqtN8PbdZxnk-23" value="+ Attribute: NAME" style="text;strokeColor=#000000;fillColor=none;align=left;verticalAlign=top;spacingLeft=4;spacingRight=4;overflow=hidden;rotatable=0;points=[[0,0.5],[1,0.5]];portConstraint=eastwest;whiteSpace=wrap;html=1;fontColor=#000000;" parent="0tsyTf72HqtN8PbdZxnk-21" vertex="1">
          <mxGeometry y="52" width="140" height="26" as="geometry" />
        </mxCell>
        <mxCell id="0tsyTf72HqtN8PbdZxnk-24" value="+ Attribute: A1" style="text;strokeColor=#000000;fillColor=none;align=left;verticalAlign=top;spacingLeft=4;spacingRight=4;overflow=hidden;rotatable=0;points=[[0,0.5],[1,0.5]];portConstraint=eastwest;whiteSpace=wrap;html=1;fontColor=#000000;" parent="0tsyTf72HqtN8PbdZxnk-21" vertex="1">
          <mxGeometry y="78" width="140" height="26" as="geometry" />
        </mxCell>
        <mxCell id="0tsyTf72HqtN8PbdZxnk-25" value="+ Member: M1" style="text;strokeColor=#000000;fillColor=none;align=left;verticalAlign=top;spacingLeft=4;spacingRight=4;overflow=hidden;rotatable=0;points=[[0,0.5],[1,0.5]];portConstraint=eastwest;whiteSpace=wrap;html=1;fontColor=#000000;" parent="0tsyTf72HqtN8PbdZxnk-21" vertex="1">
          <mxGeometry y="104" width="140" height="26" as="geometry" />
        </mxCell>
        <mxCell id="0tsyTf72HqtN8PbdZxnk-26" value="+ Member: M2" style="text;strokeColor=#000000;fillColor=none;align=left;verticalAlign=top;spacingLeft=4;spacingRight=4;overflow=hidden;rotatable=0;points=[[0,0.5],[1,0.5]];portConstraint=eastwest;whiteSpace=wrap;html=1;fontColor=#000000;" parent="0tsyTf72HqtN8PbdZxnk-21" vertex="1">
          <mxGeometry y="130" width="140" height="26" as="geometry" />
        </mxCell>
        <mxCell id="0tsyTf72HqtN8PbdZxnk-27" value="+ Member: M3" style="text;strokeColor=#000000;fillColor=none;align=left;verticalAlign=top;spacingLeft=4;spacingRight=4;overflow=hidden;rotatable=0;points=[[0,0.5],[1,0.5]];portConstraint=eastwest;whiteSpace=wrap;html=1;fontColor=#000000;" parent="0tsyTf72HqtN8PbdZxnk-21" vertex="1">
          <mxGeometry y="156" width="140" height="26" as="geometry" />
        </mxCell>
        <mxCell id="0tsyTf72HqtN8PbdZxnk-43" value="Namespace: NS1" style="swimlane;fontStyle=0;childLayout=stackLayout;horizontal=1;startSize=26;fillColor=none;horizontalStack=0;resizeParent=1;resizeParentMax=0;resizeLast=0;collapsible=1;marginBottom=0;whiteSpace=wrap;html=1;fontColor=#000000;strokeColor=#000000;" parent="1" vertex="1">
          <mxGeometry x="800" y="640" width="140" height="52" as="geometry" />
        </mxCell>
        <mxCell id="0tsyTf72HqtN8PbdZxnk-44" value="+ Entitlement: ID" style="text;strokeColor=#000000;fillColor=none;align=left;verticalAlign=top;spacingLeft=4;spacingRight=4;overflow=hidden;rotatable=0;points=[[0,0.5],[1,0.5]];portConstraint=eastwest;whiteSpace=wrap;html=1;fontColor=#000000;" parent="0tsyTf72HqtN8PbdZxnk-43" vertex="1">
          <mxGeometry y="26" width="140" height="26" as="geometry" />
        </mxCell>
        <mxCell id="0tsyTf72HqtN8PbdZxnk-47" value="Namespace: NS2" style="swimlane;fontStyle=0;childLayout=stackLayout;horizontal=1;startSize=26;fillColor=none;horizontalStack=0;resizeParent=1;resizeParentMax=0;resizeLast=0;collapsible=1;marginBottom=0;whiteSpace=wrap;html=1;fontColor=#000000;strokeColor=#000000;" parent="1" vertex="1">
          <mxGeometry x="1100" y="639" width="140" height="52" as="geometry" />
        </mxCell>
        <mxCell id="0tsyTf72HqtN8PbdZxnk-48" value="+ Entitlement: ID" style="text;strokeColor=#000000;fillColor=none;align=left;verticalAlign=top;spacingLeft=4;spacingRight=4;overflow=hidden;rotatable=0;points=[[0,0.5],[1,0.5]];portConstraint=eastwest;whiteSpace=wrap;html=1;fontColor=#000000;" parent="0tsyTf72HqtN8PbdZxnk-47" vertex="1">
          <mxGeometry y="26" width="140" height="26" as="geometry" />
        </mxCell>
        <mxCell id="0tsyTf72HqtN8PbdZxnk-49" value="Namespace: NS1" style="swimlane;fontStyle=0;childLayout=stackLayout;horizontal=1;startSize=26;fillColor=none;horizontalStack=0;resizeParent=1;resizeParentMax=0;resizeLast=0;collapsible=1;marginBottom=0;whiteSpace=wrap;html=1;fontColor=#000000;strokeColor=#000000;" parent="1" vertex="1">
          <mxGeometry x="1249" y="640" width="140" height="78" as="geometry" />
        </mxCell>
        <mxCell id="0tsyTf72HqtN8PbdZxnk-50" value="+ Entitlement: ID" style="text;strokeColor=#000000;fillColor=none;align=left;verticalAlign=top;spacingLeft=4;spacingRight=4;overflow=hidden;rotatable=0;points=[[0,0.5],[1,0.5]];portConstraint=eastwest;whiteSpace=wrap;html=1;fontColor=#000000;" parent="0tsyTf72HqtN8PbdZxnk-49" vertex="1">
          <mxGeometry y="26" width="140" height="26" as="geometry" />
        </mxCell>
        <mxCell id="0tsyTf72HqtN8PbdZxnk-52" value="+ Attribute: E1" style="text;strokeColor=#000000;fillColor=none;align=left;verticalAlign=top;spacingLeft=4;spacingRight=4;overflow=hidden;rotatable=0;points=[[0,0.5],[1,0.5]];portConstraint=eastwest;whiteSpace=wrap;html=1;fontColor=#000000;" parent="0tsyTf72HqtN8PbdZxnk-49" vertex="1">
          <mxGeometry y="52" width="140" height="26" as="geometry" />
        </mxCell>
        <mxCell id="0tsyTf72HqtN8PbdZxnk-53" value="Namespace: NS3" style="swimlane;fontStyle=0;childLayout=stackLayout;horizontal=1;startSize=26;fillColor=none;horizontalStack=0;resizeParent=1;resizeParentMax=0;resizeLast=0;collapsible=1;marginBottom=0;whiteSpace=wrap;html=1;fontColor=#000000;strokeColor=#000000;" parent="1" vertex="1">
          <mxGeometry x="950" y="640" width="140" height="104" as="geometry" />
        </mxCell>
        <mxCell id="0tsyTf72HqtN8PbdZxnk-54" value="+ Entitlement: ID" style="text;strokeColor=#000000;fillColor=none;align=left;verticalAlign=top;spacingLeft=4;spacingRight=4;overflow=hidden;rotatable=0;points=[[0,0.5],[1,0.5]];portConstraint=eastwest;whiteSpace=wrap;html=1;fontColor=#000000;" parent="0tsyTf72HqtN8PbdZxnk-53" vertex="1">
          <mxGeometry y="26" width="140" height="26" as="geometry" />
        </mxCell>
        <mxCell id="0tsyTf72HqtN8PbdZxnk-55" value="+ Attribute: E1" style="text;strokeColor=#000000;fillColor=none;align=left;verticalAlign=top;spacingLeft=4;spacingRight=4;overflow=hidden;rotatable=0;points=[[0,0.5],[1,0.5]];portConstraint=eastwest;whiteSpace=wrap;html=1;fontColor=#000000;" parent="0tsyTf72HqtN8PbdZxnk-53" vertex="1">
          <mxGeometry y="52" width="140" height="26" as="geometry" />
        </mxCell>
        <mxCell id="0tsyTf72HqtN8PbdZxnk-73" value="+ Attribute: E2" style="text;strokeColor=#000000;fillColor=none;align=left;verticalAlign=top;spacingLeft=4;spacingRight=4;overflow=hidden;rotatable=0;points=[[0,0.5],[1,0.5]];portConstraint=eastwest;whiteSpace=wrap;html=1;fontColor=#000000;" parent="0tsyTf72HqtN8PbdZxnk-53" vertex="1">
          <mxGeometry y="78" width="140" height="26" as="geometry" />
        </mxCell>
        <mxCell id="Wi8PmgA-3Iz7vUzlUj4d-133" value="" style="endArrow=none;html=1;rounded=0;exitX=0.5;exitY=0;exitDx=0;exitDy=0;fontColor=#000000;strokeColor=#000000;endFill=0;startArrow=oval;startFill=1;" parent="1" source="0tsyTf72HqtN8PbdZxnk-47" target="0tsyTf72HqtN8PbdZxnk-41" edge="1">
          <mxGeometry width="50" height="50" relative="1" as="geometry">
            <mxPoint x="1162.5" y="630" as="sourcePoint" />
            <mxPoint x="1170" y="600" as="targetPoint" />
          </mxGeometry>
        </mxCell>
        <mxCell id="0tsyTf72HqtN8PbdZxnk-29" value="Application APS" style="swimlane;fontStyle=0;childLayout=stackLayout;horizontal=1;startSize=26;fillColor=none;horizontalStack=0;resizeParent=1;resizeParentMax=0;resizeLast=0;collapsible=1;marginBottom=0;whiteSpace=wrap;html=1;fontColor=#000000;strokeColor=#000000;" parent="1" vertex="1">
          <mxGeometry x="800" y="440" width="140" height="104" as="geometry" />
        </mxCell>
        <mxCell id="0tsyTf72HqtN8PbdZxnk-32" value="+ Attribute: A1" style="text;strokeColor=#000000;fillColor=none;align=left;verticalAlign=top;spacingLeft=4;spacingRight=4;overflow=hidden;rotatable=0;points=[[0,0.5],[1,0.5]];portConstraint=eastwest;whiteSpace=wrap;html=1;fontColor=#000000;" parent="0tsyTf72HqtN8PbdZxnk-29" vertex="1">
          <mxGeometry y="26" width="140" height="26" as="geometry" />
        </mxCell>
        <mxCell id="0tsyTf72HqtN8PbdZxnk-33" value="+ Attribute: A2" style="text;strokeColor=#000000;fillColor=none;align=left;verticalAlign=top;spacingLeft=4;spacingRight=4;overflow=hidden;rotatable=0;points=[[0,0.5],[1,0.5]];portConstraint=eastwest;whiteSpace=wrap;html=1;fontColor=#000000;" parent="0tsyTf72HqtN8PbdZxnk-29" vertex="1">
          <mxGeometry y="52" width="140" height="26" as="geometry" />
        </mxCell>
        <mxCell id="0tsyTf72HqtN8PbdZxnk-34" value="+ Attribute: A3" style="text;strokeColor=#000000;fillColor=none;align=left;verticalAlign=top;spacingLeft=4;spacingRight=4;overflow=hidden;rotatable=0;points=[[0,0.5],[1,0.5]];portConstraint=eastwest;whiteSpace=wrap;html=1;fontColor=#000000;" parent="0tsyTf72HqtN8PbdZxnk-29" vertex="1">
          <mxGeometry y="78" width="140" height="26" as="geometry" />
        </mxCell>
        <mxCell id="0tsyTf72HqtN8PbdZxnk-37" value="Application APC" style="swimlane;fontStyle=0;childLayout=stackLayout;horizontal=1;startSize=26;fillColor=none;horizontalStack=0;resizeParent=1;resizeParentMax=0;resizeLast=0;collapsible=1;marginBottom=0;whiteSpace=wrap;html=1;fontColor=#000000;strokeColor=#000000;" parent="1" vertex="1">
          <mxGeometry x="1100" y="440" width="140" height="156" as="geometry" />
        </mxCell>
        <mxCell id="0tsyTf72HqtN8PbdZxnk-38" value="+ Attribute: A1" style="text;strokeColor=#000000;fillColor=none;align=left;verticalAlign=top;spacingLeft=4;spacingRight=4;overflow=hidden;rotatable=0;points=[[0,0.5],[1,0.5]];portConstraint=eastwest;whiteSpace=wrap;html=1;fontColor=#000000;" parent="0tsyTf72HqtN8PbdZxnk-37" vertex="1">
          <mxGeometry y="26" width="140" height="26" as="geometry" />
        </mxCell>
        <mxCell id="0tsyTf72HqtN8PbdZxnk-39" value="+ Attribute: A2" style="text;strokeColor=#000000;fillColor=none;align=left;verticalAlign=top;spacingLeft=4;spacingRight=4;overflow=hidden;rotatable=0;points=[[0,0.5],[1,0.5]];portConstraint=eastwest;whiteSpace=wrap;html=1;fontColor=#000000;" parent="0tsyTf72HqtN8PbdZxnk-37" vertex="1">
          <mxGeometry y="52" width="140" height="26" as="geometry" />
        </mxCell>
        <mxCell id="0tsyTf72HqtN8PbdZxnk-40" value="+ Attribute: A3" style="text;strokeColor=#000000;fillColor=none;align=left;verticalAlign=top;spacingLeft=4;spacingRight=4;overflow=hidden;rotatable=0;points=[[0,0.5],[1,0.5]];portConstraint=eastwest;whiteSpace=wrap;html=1;fontColor=#000000;" parent="0tsyTf72HqtN8PbdZxnk-37" vertex="1">
          <mxGeometry y="78" width="140" height="26" as="geometry" />
        </mxCell>
        <mxCell id="0tsyTf72HqtN8PbdZxnk-42" value="+ Attribute: A4" style="text;strokeColor=#000000;fillColor=none;align=left;verticalAlign=top;spacingLeft=4;spacingRight=4;overflow=hidden;rotatable=0;points=[[0,0.5],[1,0.5]];portConstraint=eastwest;whiteSpace=wrap;html=1;fontColor=#000000;" parent="0tsyTf72HqtN8PbdZxnk-37" vertex="1">
          <mxGeometry y="104" width="140" height="26" as="geometry" />
        </mxCell>
        <mxCell id="0tsyTf72HqtN8PbdZxnk-41" value="+ Attribute: A5" style="text;strokeColor=#000000;fillColor=none;align=left;verticalAlign=top;spacingLeft=4;spacingRight=4;overflow=hidden;rotatable=0;points=[[0,0.5],[1,0.5]];portConstraint=eastwest;whiteSpace=wrap;html=1;fontColor=#000000;" parent="0tsyTf72HqtN8PbdZxnk-37" vertex="1">
          <mxGeometry y="130" width="140" height="26" as="geometry" />
        </mxCell>
        <mxCell id="0tsyTf72HqtN8PbdZxnk-60" value="/Users (GET, POST, PUT, PATCH, DELETE)" style="text;strokeColor=none;align=left;fillColor=none;html=1;verticalAlign=middle;whiteSpace=wrap;rounded=0;fontColor=#000000;fontSize=14;" parent="1" vertex="1">
          <mxGeometry x="480" y="131" width="280" height="30" as="geometry" />
        </mxCell>
        <mxCell id="0tsyTf72HqtN8PbdZxnk-61" value="/Groups (GET, POST, PUT, DELETE)" style="text;strokeColor=none;align=left;fillColor=none;html=1;verticalAlign=middle;whiteSpace=wrap;rounded=0;fontColor=#000000;fontSize=14;" parent="1" vertex="1">
          <mxGeometry x="480" y="220" width="240" height="30" as="geometry" />
        </mxCell>
        <mxCell id="0tsyTf72HqtN8PbdZxnk-62" value="/Groups (PATCH)" style="text;strokeColor=none;align=left;fillColor=none;html=1;verticalAlign=middle;whiteSpace=wrap;rounded=0;fontColor=#000000;fontSize=14;" parent="1" vertex="1">
          <mxGeometry x="480" y="350" width="120" height="30" as="geometry" />
        </mxCell>
        <mxCell id="0tsyTf72HqtN8PbdZxnk-63" value="/Applications (GET, POST, PUT, PATCH)" style="text;strokeColor=none;align=left;fillColor=none;html=1;verticalAlign=middle;whiteSpace=wrap;rounded=0;fontColor=#000000;fontSize=14;" parent="1" vertex="1">
          <mxGeometry x="480" y="440" width="260" height="30" as="geometry" />
        </mxCell>
        <mxCell id="0tsyTf72HqtN8PbdZxnk-64" value="/Applications (PATCH)" style="text;strokeColor=none;align=left;fillColor=none;html=1;verticalAlign=middle;whiteSpace=wrap;rounded=0;fontColor=#000000;fontSize=14;" parent="1" vertex="1">
          <mxGeometry x="480" y="639" width="150" height="30" as="geometry" />
        </mxCell>
        <mxCell id="0tsyTf72HqtN8PbdZxnk-65" value="Resource" style="text;strokeColor=none;align=left;fillColor=none;html=1;verticalAlign=middle;whiteSpace=wrap;rounded=0;fontColor=#000000;fontSize=24;" parent="1" vertex="1">
          <mxGeometry x="310" y="60" width="150" height="30" as="geometry" />
        </mxCell>
        <mxCell id="0tsyTf72HqtN8PbdZxnk-66" value="User" style="text;strokeColor=none;align=left;fillColor=none;html=1;verticalAlign=middle;whiteSpace=wrap;rounded=0;fontColor=#000000;fontSize=14;" parent="1" vertex="1">
          <mxGeometry x="310" y="131" width="150" height="30" as="geometry" />
        </mxCell>
        <mxCell id="0tsyTf72HqtN8PbdZxnk-67" value="Group" style="text;strokeColor=none;align=left;fillColor=none;html=1;verticalAlign=middle;whiteSpace=wrap;rounded=0;fontColor=#000000;fontSize=14;" parent="1" vertex="1">
          <mxGeometry x="310" y="350" width="150" height="30" as="geometry" />
        </mxCell>
        <mxCell id="0tsyTf72HqtN8PbdZxnk-68" value="Application" style="text;strokeColor=none;align=left;fillColor=none;html=1;verticalAlign=middle;whiteSpace=wrap;rounded=0;fontColor=#000000;fontSize=14;" parent="1" vertex="1">
          <mxGeometry x="310" y="640" width="150" height="30" as="geometry" />
        </mxCell>
        <mxCell id="0tsyTf72HqtN8PbdZxnk-69" value="" style="endArrow=classic;html=1;rounded=0;entryX=0;entryY=0.5;entryDx=0;entryDy=0;strokeColor=#000000;" parent="1" source="0tsyTf72HqtN8PbdZxnk-62" target="0tsyTf72HqtN8PbdZxnk-26" edge="1">
          <mxGeometry width="50" height="50" relative="1" as="geometry">
            <mxPoint x="670" y="360" as="sourcePoint" />
            <mxPoint x="720" y="310" as="targetPoint" />
          </mxGeometry>
        </mxCell>
        <mxCell id="0tsyTf72HqtN8PbdZxnk-70" value="" style="endArrow=classic;html=1;rounded=0;entryX=-0.007;entryY=0.088;entryDx=0;entryDy=0;strokeColor=#000000;exitX=1;exitY=0.5;exitDx=0;exitDy=0;entryPerimeter=0;" parent="1" source="0tsyTf72HqtN8PbdZxnk-61" target="0tsyTf72HqtN8PbdZxnk-21" edge="1">
          <mxGeometry width="50" height="50" relative="1" as="geometry">
            <mxPoint x="610" y="375" as="sourcePoint" />
            <mxPoint x="810" y="373" as="targetPoint" />
          </mxGeometry>
        </mxCell>
        <mxCell id="0tsyTf72HqtN8PbdZxnk-71" value="" style="endArrow=classic;html=1;rounded=0;entryX=-0.014;entryY=0.072;entryDx=0;entryDy=0;strokeColor=#000000;exitX=1;exitY=0.5;exitDx=0;exitDy=0;entryPerimeter=0;" parent="1" source="0tsyTf72HqtN8PbdZxnk-60" target="0tsyTf72HqtN8PbdZxnk-13" edge="1">
          <mxGeometry width="50" height="50" relative="1" as="geometry">
            <mxPoint x="730" y="245" as="sourcePoint" />
            <mxPoint x="809" y="246" as="targetPoint" />
          </mxGeometry>
        </mxCell>
        <mxCell id="0tsyTf72HqtN8PbdZxnk-72" value="" style="endArrow=classic;html=1;rounded=0;entryX=0;entryY=0.25;entryDx=0;entryDy=0;strokeColor=#000000;exitX=1;exitY=0.5;exitDx=0;exitDy=0;" parent="1" source="0tsyTf72HqtN8PbdZxnk-64" target="0tsyTf72HqtN8PbdZxnk-43" edge="1">
          <mxGeometry width="50" height="50" relative="1" as="geometry">
            <mxPoint x="610" y="375" as="sourcePoint" />
            <mxPoint x="810" y="373" as="targetPoint" />
          </mxGeometry>
        </mxCell>
        <mxCell id="0tsyTf72HqtN8PbdZxnk-74" value="" style="endArrow=classic;html=1;rounded=0;entryX=0;entryY=0.144;entryDx=0;entryDy=0;strokeColor=#000000;exitX=1;exitY=0.5;exitDx=0;exitDy=0;entryPerimeter=0;" parent="1" source="0tsyTf72HqtN8PbdZxnk-63" target="0tsyTf72HqtN8PbdZxnk-29" edge="1">
          <mxGeometry width="50" height="50" relative="1" as="geometry">
            <mxPoint x="640" y="664" as="sourcePoint" />
            <mxPoint x="810" y="663" as="targetPoint" />
          </mxGeometry>
        </mxCell>
      </root>
    </mxGraphModel>
  </diagram>
</mxfile>
